<?xml version="1.0" encoding="UTF-8" standalone="no"?>
<!DOCTYPE svg PUBLIC "-//W3C//DTD SVG 1.1//EN" "http://www.w3.org/Graphics/SVG/1.1/DTD/svg11.dtd">
<svg width="100%" height="100%" viewBox="0 0 772 772" version="1.1" xmlns="http://www.w3.org/2000/svg" xmlns:xlink="http://www.w3.org/1999/xlink" xml:space="preserve" xmlns:serif="http://www.serif.com/" style="fill-rule:evenodd;clip-rule:evenodd;stroke-linecap:round;stroke-linejoin:round;">
    <g transform="matrix(0.5,-6.12323e-17,6.12323e-17,-1,1.13687e-13,772)">
        <rect x="0" y="0" width="1544" height="772" style="fill:url(#_Radial1);"/>
    </g>
    <g transform="matrix(1,0,0,1,-337.994,-123.475)">
        <path d="M560.265,267L568.39,267C577.39,267 581.89,263.083 581.89,255.25C581.89,247.417 577.39,243.5 568.39,243.5L560.265,243.5L560.265,267ZM560.265,318L535.765,318L535.765,223.75L574.765,223.75C585.348,223.75 593.452,226.5 599.077,232C604.702,237.5 607.515,245.25 607.515,255.25C607.515,265.25 604.702,273 599.077,278.5C593.452,284 585.348,286.75 574.765,286.75L560.265,286.75L560.265,318Z" style="fill:rgb(255,148,20);fill-rule:nonzero;"/>
        <path d="M641.015,253.875L641.015,290C641.015,297.917 644.848,301.875 652.515,301.875C660.182,301.875 664.015,297.917 664.015,290L664.015,253.875L686.64,253.875L686.64,294.375C686.64,303.042 683.786,309.542 678.077,313.875C672.369,318.208 663.848,320.375 652.515,320.375C641.182,320.375 632.661,318.208 626.952,313.875C621.244,309.542 618.39,303.042 618.39,294.375L618.39,253.875L641.015,253.875Z" style="fill:rgb(255,148,20);fill-rule:nonzero;"/>
        <path d="M702.015,253.875L724.64,253.875L724.64,264.375C727.057,260.542 730.015,257.604 733.515,255.562C737.015,253.521 741.098,252.5 745.765,252.5L747.702,252.5C748.411,252.5 749.223,252.583 750.14,252.75L750.14,274.375C747.14,272.875 743.89,272.125 740.39,272.125C735.14,272.125 731.202,273.687 728.577,276.812C725.952,279.937 724.64,284.5 724.64,290.5L724.64,318L702.015,318L702.015,253.875Z" style="fill:rgb(255,148,20);fill-rule:nonzero;"/>
        <path d="M782.89,253.875L782.89,318L760.265,318L760.265,253.875L782.89,253.875ZM758.765,229.25C758.765,227.5 759.098,225.854 759.765,224.312C760.432,222.771 761.348,221.417 762.515,220.25C763.682,219.083 765.036,218.167 766.577,217.5C768.119,216.833 769.765,216.5 771.515,216.5C773.265,216.5 774.911,216.833 776.452,217.5C777.994,218.167 779.348,219.083 780.515,220.25C781.682,221.417 782.598,222.771 783.265,224.312C783.932,225.854 784.265,227.5 784.265,229.25C784.265,231 783.932,232.646 783.265,234.187C782.598,235.729 781.682,237.083 780.515,238.25C779.348,239.417 777.994,240.333 776.452,241C774.911,241.667 773.265,242 771.515,242C769.765,242 768.119,241.667 766.577,241C765.036,240.333 763.682,239.417 762.515,238.25C761.348,237.083 760.432,235.729 759.765,234.187C759.098,232.646 758.765,231 758.765,229.25Z" style="fill:rgb(255,148,20);fill-rule:nonzero;"/>
        <path d="M822.89,272.75L822.89,318L800.265,318L800.265,272.75L792.14,272.75L792.14,253.875L800.265,253.875L800.265,244.25C800.265,238.917 800.765,234.667 801.765,231.5C802.598,228.833 803.932,226.354 805.765,224.062C807.598,221.771 809.744,219.792 812.202,218.125C814.661,216.458 817.307,215.167 820.14,214.25C822.973,213.333 825.765,212.875 828.515,212.875C830.432,212.875 832.202,213.083 833.827,213.5C835.452,213.917 837.098,214.5 838.765,215.25L838.765,235C837.265,234.25 835.869,233.687 834.577,233.312C833.286,232.937 831.932,232.75 830.515,232.75C829.598,232.75 828.661,232.896 827.702,233.187C826.744,233.479 825.848,234.083 825.015,235C824.182,235.917 823.619,237.229 823.327,238.937C823.036,240.646 822.89,242.958 822.89,245.875L822.89,253.875L838.765,253.875L838.765,272.75L822.89,272.75Z" style="fill:rgb(255,148,20);fill-rule:nonzero;"/>
        <path d="M870.515,309.25L839.515,253.875L865.765,253.875L882.89,286.75L899.515,253.875L925.515,253.875L874.015,350L848.64,350L870.515,309.25Z" style="fill:rgb(255,148,20);fill-rule:nonzero;"/>
        <path d="M461.702,405.167L472.536,445.75L485.869,405.167L498.869,405.167L512.202,445.75L523.036,405.167L540.119,405.167L521.369,468L504.702,468L492.369,431.583L480.036,468L463.369,468L444.619,405.167L461.702,405.167Z" style="fill:rgb(255,148,20);fill-rule:nonzero;"/>
        <path d="M563.036,434L568.452,434C574.452,434 577.452,431.389 577.452,426.167C577.452,420.944 574.452,418.333 568.452,418.333L563.036,418.333L563.036,434ZM563.036,468L546.702,468L546.702,405.167L572.702,405.167C579.758,405.167 585.161,407 588.911,410.667C592.661,414.333 594.536,419.5 594.536,426.167C594.536,432.833 592.661,438 588.911,441.667C585.161,445.333 579.758,447.167 572.702,447.167L563.036,447.167L563.036,468Z" style="fill:rgb(255,148,20);fill-rule:nonzero;"/>
        <path d="M648.452,426.167C644.675,421.556 640.008,419.25 634.452,419.25C632.008,419.25 629.744,419.694 627.661,420.583C625.577,421.472 623.786,422.681 622.286,424.208C620.786,425.736 619.605,427.556 618.744,429.667C617.883,431.778 617.452,434.056 617.452,436.5C617.452,439 617.883,441.306 618.744,443.417C619.605,445.528 620.8,447.361 622.327,448.917C623.855,450.472 625.647,451.694 627.702,452.583C629.758,453.472 631.98,453.917 634.369,453.917C639.591,453.917 644.286,451.694 648.452,447.25L648.452,466.583L646.786,467.167C644.286,468.056 641.952,468.708 639.786,469.125C637.619,469.542 635.48,469.75 633.369,469.75C629.036,469.75 624.883,468.931 620.911,467.292C616.939,465.653 613.439,463.347 610.411,460.375C607.383,457.403 604.952,453.875 603.119,449.792C601.286,445.708 600.369,441.25 600.369,436.417C600.369,431.583 601.272,427.153 603.077,423.125C604.883,419.097 607.3,415.625 610.327,412.708C613.355,409.792 616.869,407.514 620.869,405.875C624.869,404.236 629.064,403.417 633.452,403.417C635.952,403.417 638.411,403.681 640.827,404.208C643.244,404.736 645.786,405.556 648.452,406.667L648.452,426.167Z" style="fill:rgb(255,148,20);fill-rule:nonzero;"/>
        <path d="M671.619,446.417C671.619,447.861 671.883,449.181 672.411,450.375C672.939,451.569 673.633,452.611 674.494,453.5C675.355,454.389 676.383,455.083 677.577,455.583C678.772,456.083 680.036,456.333 681.369,456.333C682.702,456.333 683.966,456.083 685.161,455.583C686.355,455.083 687.383,454.389 688.244,453.5C689.105,452.611 689.8,451.569 690.327,450.375C690.855,449.181 691.119,447.889 691.119,446.5C691.119,445.167 690.855,443.903 690.327,442.708C689.8,441.514 689.105,440.472 688.244,439.583C687.383,438.694 686.355,438 685.161,437.5C683.966,437 682.702,436.75 681.369,436.75C680.036,436.75 678.772,437 677.577,437.5C676.383,438 675.355,438.694 674.494,439.583C673.633,440.472 672.939,441.5 672.411,442.667C671.883,443.833 671.619,445.083 671.619,446.417ZM655.702,446.25C655.702,443.083 656.341,440.125 657.619,437.375C658.897,434.625 660.675,432.236 662.952,430.208C665.23,428.181 667.939,426.583 671.077,425.417C674.216,424.25 677.647,423.667 681.369,423.667C685.036,423.667 688.439,424.236 691.577,425.375C694.716,426.514 697.439,428.097 699.744,430.125C702.05,432.153 703.841,434.569 705.119,437.375C706.397,440.181 707.036,443.278 707.036,446.667C707.036,450.056 706.383,453.153 705.077,455.958C703.772,458.764 701.98,461.181 699.702,463.208C697.425,465.236 694.689,466.806 691.494,467.917C688.3,469.028 684.841,469.583 681.119,469.583C677.452,469.583 674.064,469.028 670.952,467.917C667.841,466.806 665.161,465.222 662.911,463.167C660.661,461.111 658.897,458.653 657.619,455.792C656.341,452.931 655.702,449.75 655.702,446.25Z" style="fill:rgb(255,148,20);fill-rule:nonzero;"/>
        <path d="M729.702,446.5C729.702,447.889 729.952,449.181 730.452,450.375C730.952,451.569 731.633,452.611 732.494,453.5C733.355,454.389 734.383,455.083 735.577,455.583C736.772,456.083 738.064,456.333 739.452,456.333C740.786,456.333 742.05,456.083 743.244,455.583C744.439,455.083 745.466,454.389 746.327,453.5C747.189,452.611 747.883,451.583 748.411,450.417C748.939,449.25 749.202,448 749.202,446.667C749.202,445.333 748.939,444.069 748.411,442.875C747.883,441.681 747.189,440.639 746.327,439.75C745.466,438.861 744.439,438.167 743.244,437.667C742.05,437.167 740.786,436.917 739.452,436.917C738.119,436.917 736.855,437.167 735.661,437.667C734.466,438.167 733.439,438.861 732.577,439.75C731.716,440.639 731.022,441.653 730.494,442.792C729.966,443.931 729.702,445.167 729.702,446.5ZM748.702,398.833L763.869,398.833L763.869,468L748.702,468L748.702,463.25C745.48,467.306 741.119,469.333 735.619,469.333C732.508,469.333 729.647,468.75 727.036,467.583C724.425,466.417 722.147,464.806 720.202,462.75C718.258,460.694 716.744,458.278 715.661,455.5C714.577,452.722 714.036,449.722 714.036,446.5C714.036,443.444 714.55,440.542 715.577,437.792C716.605,435.042 718.064,432.639 719.952,430.583C721.841,428.528 724.105,426.903 726.744,425.708C729.383,424.514 732.286,423.917 735.452,423.917C740.786,423.917 745.202,425.778 748.702,429.5L748.702,398.833Z" style="fill:rgb(255,148,20);fill-rule:nonzero;"/>
        <path d="M805.369,440.417C804.869,438.306 803.841,436.611 802.286,435.333C800.73,434.056 798.841,433.417 796.619,433.417C794.286,433.417 792.383,434.028 790.911,435.25C789.439,436.472 788.508,438.194 788.119,440.417L805.369,440.417ZM787.702,449.167C787.702,455.667 790.758,458.917 796.869,458.917C800.147,458.917 802.619,457.583 804.286,454.917L818.869,454.917C815.925,464.694 808.564,469.583 796.786,469.583C793.175,469.583 789.869,469.042 786.869,467.958C783.869,466.875 781.3,465.333 779.161,463.333C777.022,461.333 775.369,458.944 774.202,456.167C773.036,453.389 772.452,450.278 772.452,446.833C772.452,443.278 773.008,440.069 774.119,437.208C775.23,434.347 776.814,431.917 778.869,429.917C780.925,427.917 783.411,426.375 786.327,425.292C789.244,424.208 792.536,423.667 796.202,423.667C799.814,423.667 803.064,424.208 805.952,425.292C808.841,426.375 811.286,427.944 813.286,430C815.286,432.056 816.814,434.569 817.869,437.542C818.925,440.514 819.452,443.861 819.452,447.583L819.452,449.167L787.702,449.167Z" style="fill:rgb(255,148,20);fill-rule:nonzero;"/>
        <path d="M874.119,405.167L874.119,454.167L893.702,454.167L893.702,468L857.786,468L857.786,405.167L874.119,405.167Z" style="fill:rgb(255,148,20);fill-rule:nonzero;"/>
        <path d="M915.786,425.25L915.786,468L900.702,468L900.702,425.25L915.786,425.25ZM899.702,408.833C899.702,407.667 899.925,406.569 900.369,405.542C900.814,404.514 901.425,403.611 902.202,402.833C902.98,402.056 903.883,401.444 904.911,401C905.939,400.556 907.036,400.333 908.202,400.333C909.369,400.333 910.466,400.556 911.494,401C912.522,401.444 913.425,402.056 914.202,402.833C914.98,403.611 915.591,404.514 916.036,405.542C916.48,406.569 916.702,407.667 916.702,408.833C916.702,410 916.48,411.097 916.036,412.125C915.591,413.153 914.98,414.056 914.202,414.833C913.425,415.611 912.522,416.222 911.494,416.667C910.466,417.111 909.369,417.333 908.202,417.333C907.036,417.333 905.939,417.111 904.911,416.667C903.883,416.222 902.98,415.611 902.202,414.833C901.425,414.056 900.814,413.153 900.369,412.125C899.925,411.097 899.702,410 899.702,408.833Z" style="fill:rgb(255,148,20);fill-rule:nonzero;"/>
        <path d="M942.952,437.833L942.952,468L927.869,468L927.869,437.833L922.869,437.833L922.869,425.25L927.869,425.25L927.869,412.417L942.952,412.417L942.952,425.25L951.536,425.25L951.536,437.833L942.952,437.833Z" style="fill:rgb(255,148,20);fill-rule:nonzero;"/>
        <path d="M989.286,440.417C988.786,438.306 987.758,436.611 986.202,435.333C984.647,434.056 982.758,433.417 980.536,433.417C978.202,433.417 976.3,434.028 974.827,435.25C973.355,436.472 972.425,438.194 972.036,440.417L989.286,440.417ZM971.619,449.167C971.619,455.667 974.675,458.917 980.786,458.917C984.064,458.917 986.536,457.583 988.202,454.917L1002.79,454.917C999.841,464.694 992.48,469.583 980.702,469.583C977.091,469.583 973.786,469.042 970.786,467.958C967.786,466.875 965.216,465.333 963.077,463.333C960.939,461.333 959.286,458.944 958.119,456.167C956.952,453.389 956.369,450.278 956.369,446.833C956.369,443.278 956.925,440.069 958.036,437.208C959.147,434.347 960.73,431.917 962.786,429.917C964.841,427.917 967.327,426.375 970.244,425.292C973.161,424.208 976.452,423.667 980.119,423.667C983.73,423.667 986.98,424.208 989.869,425.292C992.758,426.375 995.202,427.944 997.202,430C999.202,432.056 1000.73,434.569 1001.79,437.542C1002.84,440.514 1003.37,443.861 1003.37,447.583L1003.37,449.167L971.619,449.167Z" style="fill:rgb(255,148,20);fill-rule:nonzero;"/>
    </g>
    <g transform="matrix(13.1581,-1.96258,1.96258,13.1581,212.402,435.677)">
        <path d="M20,6L20,10C20,10.549 19.549,11 19,11L5,11C4.451,11 4,10.549 4,10L4,6C4,5.451 4.451,5 5,5L19,5C19.549,5 20,5.451 20,6M10,16L14,20M10,20L14,16" style="fill:none;fill-rule:nonzero;stroke:rgb(173,184,194);stroke-width:1.42px;"/>
    </g>
    <defs>
        <radialGradient id="_Radial1" cx="0" cy="0" r="1" gradientUnits="userSpaceOnUse" gradientTransform="matrix(1574.88,-779.72,-779.72,-1574.88,0,772)"><stop offset="0" style="stop-color:rgb(48,35,174);stop-opacity:1"/><stop offset="1" style="stop-color:rgb(200,109,215);stop-opacity:1"/></radialGradient>
    </defs>
</svg>
